<svg width="828" height="155" viewBox="0 0 828 155" fill="none" xmlns="http://www.w3.org/2000/svg">
<path d="M190.616 106L162.968 47.12H167.32L192.92 102.416H190.744L216.472 47.12H220.824L192.92 106H190.616ZM254.521 107.28C248.804 107.28 243.641 105.915 239.033 103.184C234.51 100.453 230.884 96.7413 228.153 92.048C225.508 87.3547 224.185 82.1067 224.185 76.304C224.185 70.5867 225.508 65.424 228.153 60.816C230.884 56.208 234.51 52.5813 239.033 49.936C243.641 47.2053 248.804 45.84 254.521 45.84C260.153 45.84 265.23 47.2053 269.753 49.936C274.361 52.5813 277.988 56.208 280.633 60.816C283.364 65.424 284.729 70.5867 284.729 76.304C284.729 82.192 283.364 87.4827 280.633 92.176C277.988 96.784 274.361 100.453 269.753 103.184C265.23 105.915 260.153 107.28 254.521 107.28ZM254.521 103.568C259.47 103.568 263.908 102.373 267.833 99.984C271.758 97.5947 274.873 94.352 277.177 90.256C279.481 86.0747 280.633 81.3813 280.633 76.176C280.633 71.1413 279.481 66.6187 277.177 62.608C274.873 58.5973 271.758 55.44 267.833 53.136C263.908 50.7467 259.47 49.552 254.521 49.552C249.572 49.552 245.092 50.7467 241.081 53.136C237.156 55.44 234.041 58.5973 231.737 62.608C229.433 66.6187 228.281 71.184 228.281 76.304C228.281 81.5093 229.433 86.16 231.737 90.256C234.041 94.352 237.156 97.5947 241.081 99.984C245.092 102.373 249.572 103.568 254.521 103.568ZM297.56 106V47.12H301.528V106H297.56ZM301.528 70.032L298.84 69.264C298.84 61.7547 300.803 55.9947 304.728 51.984C308.739 47.888 313.731 45.84 319.704 45.84C322.605 45.84 325.293 46.352 327.768 47.376C330.328 48.4 332.675 50.0213 334.808 52.24L332.12 55.184C330.328 53.2213 328.365 51.8133 326.232 50.96C324.184 50.1067 321.795 49.68 319.064 49.68C313.859 49.68 309.635 51.472 306.392 55.056C303.149 58.5547 301.528 63.5467 301.528 70.032ZM350.939 106V22.032H354.907V106H350.939ZM335.323 50.576V47.12H370.395V50.576H335.323ZM405.263 107.28C399.375 107.28 394.084 105.957 389.391 103.312C384.783 100.581 381.114 96.912 378.383 92.304C375.738 87.6107 374.415 82.32 374.415 76.432C374.415 70.6293 375.695 65.424 378.255 60.816C380.9 56.208 384.484 52.5813 389.007 49.936C393.615 47.2053 398.778 45.84 404.495 45.84C409.786 45.84 414.436 47.0347 418.447 49.424C422.543 51.728 425.743 54.9707 428.047 59.152C430.351 63.3333 431.503 68.1547 431.503 73.616C431.503 73.9573 431.46 74.512 431.375 75.28C431.375 75.9627 431.29 76.8587 431.119 77.968H377.231V74.256H428.559L427.407 75.152C427.748 70.1173 426.98 65.68 425.103 61.84C423.226 58 420.495 55.0133 416.911 52.88C413.412 50.6613 409.231 49.552 404.367 49.552C399.247 49.552 394.724 50.704 390.799 53.008C386.959 55.2267 383.93 58.3413 381.711 62.352C379.578 66.2773 378.511 70.8853 378.511 76.176C378.511 81.6373 379.62 86.416 381.839 90.512C384.143 94.608 387.343 97.808 391.439 100.112C395.535 102.416 400.314 103.568 405.775 103.568C409.871 103.568 413.626 102.8 417.039 101.264C420.538 99.728 423.482 97.424 425.871 94.352L428.559 97.04C425.914 100.197 422.543 102.715 418.447 104.592C414.436 106.384 410.042 107.28 405.263 107.28ZM484.676 106L462.02 77.328L460.868 76.432L436.292 47.12H441.412L463.172 73.616L464.324 74.384L489.796 106H484.676ZM435.268 106L461.124 74.384L462.916 77.584L440.26 106H435.268ZM464.196 76.432L462.404 73.488L483.78 47.12H488.772L464.196 76.432ZM525.928 107.28C520.211 107.28 515.048 105.915 510.44 103.184C505.917 100.453 502.333 96.784 499.688 92.176C497.043 87.4827 495.72 82.192 495.72 76.304C495.72 70.5013 497.043 65.2533 499.688 60.56C502.333 55.8667 505.917 52.1547 510.44 49.424C514.963 46.608 520.04 45.2 525.672 45.2C530.28 45.2 534.376 46.096 537.96 47.888C541.629 49.5947 544.616 52.0267 546.92 55.184C549.309 58.3413 550.845 62.096 551.528 66.448V85.904C550.76 90.256 549.181 94.0533 546.792 97.296C544.488 100.453 541.544 102.928 537.96 104.72C534.461 106.427 530.451 107.28 525.928 107.28ZM526.824 101.136C533.651 101.136 539.069 98.8747 543.08 94.352C547.176 89.744 549.224 83.728 549.224 76.304C549.224 71.2693 548.285 66.9173 546.408 63.248C544.616 59.4933 542.013 56.592 538.6 54.544C535.187 52.4107 531.219 51.344 526.696 51.344C522.003 51.344 517.821 52.4107 514.152 54.544C510.568 56.6773 507.709 59.6213 505.576 63.376C503.528 67.1307 502.504 71.3973 502.504 76.176C502.504 81.04 503.528 85.3493 505.576 89.104C507.709 92.8587 510.611 95.8027 514.28 97.936C517.949 100.069 522.131 101.136 526.824 101.136ZM548.968 106V90L550.376 75.408L548.968 60.944V46.48H555.496V106H548.968ZM596.573 107.28C590.941 107.28 585.906 105.915 581.469 103.184C577.032 100.453 573.533 96.784 570.973 92.176C568.413 87.4827 567.133 82.192 567.133 76.304C567.133 70.416 568.413 65.1253 570.973 60.432C573.533 55.7387 577.032 52.0267 581.469 49.296C585.906 46.5653 590.941 45.2 596.573 45.2C600.925 45.2 604.936 46.0533 608.605 47.76C612.36 49.4667 615.517 51.9413 618.077 55.184C620.637 58.3413 622.258 62.096 622.941 66.448V85.904C622.173 90.1707 620.552 93.9253 618.077 97.168C615.602 100.325 612.488 102.8 608.733 104.592C605.064 106.384 601.01 107.28 596.573 107.28ZM597.725 101.136C602.248 101.136 606.216 100.069 609.629 97.936C613.042 95.8027 615.688 92.9013 617.565 89.232C619.528 85.4773 620.509 81.168 620.509 76.304C620.509 71.3547 619.528 67.0453 617.565 63.376C615.602 59.6213 612.872 56.6773 609.373 54.544C605.96 52.4107 601.949 51.344 597.341 51.344C592.818 51.344 588.765 52.4107 585.181 54.544C581.682 56.6773 578.909 59.6213 576.861 63.376C574.813 67.0453 573.789 71.312 573.789 76.176C573.789 81.04 574.813 85.3493 576.861 89.104C578.909 92.8587 581.725 95.8027 585.309 97.936C588.893 100.069 593.032 101.136 597.725 101.136ZM626.781 106H620.253V90L621.789 75.408L620.253 60.944V16.144H626.781V106ZM642.13 106V46.48H648.658V106H642.13ZM683.858 106V69.008C683.858 63.632 682.237 59.3227 678.994 56.08C675.837 52.8373 671.783 51.216 666.834 51.216C663.506 51.216 660.477 51.9413 657.746 53.392C655.015 54.8427 652.797 56.8907 651.09 59.536C649.469 62.1813 648.658 65.2533 648.658 68.752L645.33 67.984C645.33 63.376 646.311 59.3653 648.274 55.952C650.322 52.5387 653.053 49.8933 656.466 48.016C659.965 46.1387 663.847 45.2 668.114 45.2C672.381 45.2 676.178 46.1387 679.506 48.016C682.834 49.8933 685.479 52.5387 687.442 55.952C689.405 59.3653 690.386 63.376 690.386 67.984V106H683.858ZM725.586 106V69.008C725.586 63.632 723.965 59.3227 720.722 56.08C717.565 52.8373 713.511 51.216 708.562 51.216C705.234 51.216 702.162 51.9413 699.346 53.392C696.615 54.8427 694.439 56.8907 692.818 59.536C691.197 62.1813 690.386 65.2533 690.386 68.752L686.418 67.984C686.503 63.2907 687.57 59.28 689.618 55.952C691.751 52.5387 694.567 49.8933 698.066 48.016C701.565 46.1387 705.447 45.2 709.714 45.2C713.981 45.2 717.778 46.1387 721.106 48.016C724.434 49.8933 727.079 52.5813 729.042 56.08C731.09 59.4933 732.114 63.504 732.114 68.112V106H725.586ZM746.293 106V46.48H752.693V106H746.293ZM749.493 32.656C748.042 32.656 746.805 32.144 745.781 31.12C744.842 30.0107 744.373 28.7307 744.373 27.28C744.373 25.8293 744.842 24.6347 745.781 23.696C746.805 22.672 748.042 22.16 749.493 22.16C750.944 22.16 752.181 22.672 753.205 23.696C754.229 24.6347 754.741 25.8293 754.741 27.28C754.741 28.7307 754.229 30.0107 753.205 31.12C752.181 32.144 750.944 32.656 749.493 32.656ZM813.125 106V70.672C813.125 64.8693 811.418 60.176 808.005 56.592C804.592 53.008 800.069 51.216 794.437 51.216C790.597 51.216 787.184 52.0693 784.197 53.776C781.296 55.3973 778.992 57.6587 777.285 60.56C775.664 63.4613 774.853 66.832 774.853 70.672L771.525 68.752C771.525 64.2293 772.592 60.2187 774.725 56.72C776.858 53.136 779.76 50.32 783.429 48.272C787.098 46.224 791.28 45.2 795.973 45.2C800.666 45.2 804.762 46.3093 808.261 48.528C811.845 50.6613 814.618 53.6053 816.581 57.36C818.544 61.1147 819.525 65.296 819.525 69.904V106H813.125ZM768.325 106V46.48H774.853V106H768.325Z" fill="white"/>
<path d="M78.5173 14.5136L71.3981 66.1052L62.9946 60.7497L69.7642 17.6795L74.6382 20.7857L38.3724 45.058L30.3051 39.9167L74.0634 11.6751L78.5173 14.5136Z" fill="white"/>
<path d="M133.285 44.1345L86.2592 66.5154L86.1203 56.5514L125.833 38.5577L125.914 44.3368L85.7136 27.3569L85.5803 17.7915L133.212 38.8535L133.285 44.1345Z" fill="white"/>
<path d="M136.371 108.108L92.1996 80.5159L100.523 75.0367L137.06 98.8252L132.233 102.003L124.911 58.9829L132.901 53.7229L140.782 105.204L136.371 108.108Z" fill="white"/>
<path d="M24.0394 112.486L70.5983 89.1484L70.9409 99.1075L31.6044 117.909L31.4057 112.133L71.9444 128.288L72.2733 137.848L24.221 117.765L24.0394 112.486Z" fill="white"/>
<path d="M78.5278 140.779L83.9152 88.9775L92.4934 94.0486L87.17 137.321L82.1947 134.38L117.627 108.907L125.862 113.775L83.0743 143.466L78.5278 140.779Z" fill="white"/>
<path d="M23.2646 46.195L66.014 75.9417L57.4293 81.0016L22.1157 55.4318L27.0948 52.497L32.2761 95.8273L24.0348 100.685L18.7147 48.8767L23.2646 46.195Z" fill="white"/>
</svg>
